<svg width="40" height="40" viewBox="0 0 40 40" fill="none" xmlns="http://www.w3.org/2000/svg">
<g clip-path="url(#clip0_1_1439)">
<path d="M21.6668 11.6668H18.3335V18.3335H11.6668V21.6668H18.3335V28.3335H21.6668V21.6668H28.3335V18.3335H21.6668V11.6668ZM20.0002 3.3335C10.8002 3.3335 3.3335 10.8002 3.3335 20.0002C3.3335 29.2002 10.8002 36.6668 20.0002 36.6668C29.2002 36.6668 36.6668 29.2002 36.6668 20.0002C36.6668 10.8002 29.2002 3.3335 20.0002 3.3335ZM20.0002 33.3335C12.6502 33.3335 6.66683 27.3502 6.66683 20.0002C6.66683 12.6502 12.6502 6.66683 20.0002 6.66683C27.3502 6.66683 33.3335 12.6502 33.3335 20.0002C33.3335 27.3502 27.3502 33.3335 20.0002 33.3335Z" fill="white"/>
</g>
<defs>
<clipPath id="clip0_1_1439">
<rect width="40" height="40" fill="white"/>
</clipPath>
</defs>
</svg>
