<svg width="24" height="107" viewBox="0 0 24 107" fill="none" xmlns="http://www.w3.org/2000/svg">
<path fill-rule="evenodd" clip-rule="evenodd" d="M3.92725 88.5H18.5636V103.5C18.5636 104.881 17.253 106 15.6363 106H6.85452C5.23783 106 3.92725 104.881 3.92725 103.5V88.5ZM11.2454 86C12.8621 86 14.1727 87.1193 14.1727 88.5H8.31816C8.31816 87.1193 9.62874 86 11.2454 86Z" stroke="white" stroke-width="2" stroke-linecap="round" stroke-linejoin="round"/>
<path d="M1 88.5H21.4909" stroke="white" stroke-width="2" stroke-linecap="round" stroke-linejoin="round"/>
<path d="M8.31818 92.25V102.25" stroke="white" stroke-width="2" stroke-linecap="round" stroke-linejoin="round"/>
<path d="M14.1727 92.25V102.25" stroke="white" stroke-width="2" stroke-linecap="round" stroke-linejoin="round"/>
<path fill-rule="evenodd" clip-rule="evenodd" d="M4.92725 3.5H19.5636V18.5C19.5636 19.8807 18.253 21 16.6363 21H7.85452C6.23783 21 4.92725 19.8807 4.92725 18.5V3.5ZM12.2454 1C13.8621 1 15.1727 2.11929 15.1727 3.5H9.31816C9.31816 2.11929 10.6287 1 12.2454 1Z" stroke="white" stroke-width="2" stroke-linecap="round" stroke-linejoin="round"/>
<path d="M2 3.5H22.4909" stroke="white" stroke-width="2" stroke-linecap="round" stroke-linejoin="round"/>
<path d="M9.31818 7.25V17.25" stroke="white" stroke-width="2" stroke-linecap="round" stroke-linejoin="round"/>
<path d="M15.1727 7.25V17.25" stroke="white" stroke-width="2" stroke-linecap="round" stroke-linejoin="round"/>
</svg>
