<svg width="39" height="18" viewBox="0 0 39 18" fill="none" xmlns="http://www.w3.org/2000/svg">
<path fill-rule="evenodd" clip-rule="evenodd" d="M10.3907 3.00213C10.6407 2.7519 10.9798 2.61133 11.3333 2.61133C11.6869 2.61133 12.026 2.7519 12.276 3.00213L14 4.72799C14.25 4.9783 14.3904 5.31774 14.3904 5.67167C14.3904 6.0256 14.25 6.36505 14 6.61535L12.9427 7.67383L9.33333 4.0606L10.3907 3.00213ZM8.39067 5.00429L2.39067 11.0108C2.1406 11.261 2.00008 11.6005 2 11.9544V13.6803C2 14.0343 2.14048 14.3738 2.39052 14.6241C2.64057 14.8744 2.97971 15.0151 3.33333 15.0151H5.05733C5.41093 15.015 5.75001 14.8743 6 14.624L12 8.61751L8.39067 5.00429Z" fill="white"/>
<path fill-rule="evenodd" clip-rule="evenodd" d="M24.2856 2.82609H35.7142V13.7826C35.7142 14.7911 34.6909 15.6087 33.4285 15.6087H26.5714C25.309 15.6087 24.2856 14.7911 24.2856 13.7826V2.82609ZM29.9999 1C31.2623 1 32.2856 1.81757 32.2856 2.82609H27.7142C27.7142 1.81757 28.7376 1 29.9999 1Z" stroke="white" stroke-width="2" stroke-linecap="round" stroke-linejoin="round"/>
<path d="M22 2.82617H38" stroke="white" stroke-width="2" stroke-linecap="round" stroke-linejoin="round"/>
<path d="M27.7144 5.56543V12.8698" stroke="white" stroke-width="2" stroke-linecap="round" stroke-linejoin="round"/>
<path d="M32.2856 5.56543V12.8698" stroke="white" stroke-width="2" stroke-linecap="round" stroke-linejoin="round"/>
</svg>
