<svg width="27" height="29" viewBox="0 0 27 29" fill="none" xmlns="http://www.w3.org/2000/svg">
<path fill-rule="evenodd" clip-rule="evenodd" d="M7.22222 0.162598C7.77451 0.162598 8.22222 0.592462 8.22222 1.12273V3.14967H18.6667V1.12273C18.6667 0.592462 19.1144 0.162598 19.6667 0.162598C20.219 0.162598 20.6667 0.592462 20.6667 1.12273V3.14967H22.7778C23.8681 3.14967 24.9138 3.56553 25.6848 4.30577C26.4558 5.04602 26.8889 6.05 26.8889 7.09687V10.0839C26.8889 10.2164 26.861 10.3425 26.8105 10.4573C26.861 10.5721 26.8889 10.6983 26.8889 10.8307V25.0193C26.8889 26.0661 26.4558 27.0701 25.6848 27.8104C24.9138 28.5506 23.8681 28.9665 22.7778 28.9665H4.11111C3.02078 28.9665 1.9751 28.5506 1.20412 27.8104C0.433134 27.0701 0 26.0661 0 25.0193V10.8307C0 10.6983 0.0279269 10.5721 0.0784349 10.4573C0.0279269 10.3425 0 10.2164 0 10.0839V7.09687C0 6.05 0.433133 5.04602 1.20412 4.30577C1.9751 3.56553 3.02078 3.14967 4.11111 3.14967H6.22222V1.12273C6.22222 0.592462 6.66994 0.162598 7.22222 0.162598ZM2 9.12381V7.09687C2 6.55929 2.22242 6.04373 2.61833 5.6636C3.01424 5.28348 3.55121 5.06993 4.11111 5.06993H22.7778C23.3377 5.06993 23.8746 5.28348 24.2706 5.6636C24.6665 6.04373 24.8889 6.55929 24.8889 7.09687V9.12381H2ZM24.8889 11.0441H2V25.0193C2 25.5569 2.22242 26.0724 2.61833 26.4525C3.01424 26.8327 3.55121 27.0462 4.11111 27.0462H22.7778C23.3377 27.0462 23.8746 26.8327 24.2706 26.4525C24.6665 26.0724 24.8889 25.5569 24.8889 25.0193V11.0441Z" fill="white"/>
</svg>
