<svg width="28" height="29" viewBox="0 0 28 29" fill="none" xmlns="http://www.w3.org/2000/svg">
<path fill-rule="evenodd" clip-rule="evenodd" d="M7.79542 0C8.33714 0 8.77629 0.429865 8.77629 0.960129V2.98707H19.0208V0.960129C19.0208 0.429865 19.46 0 20.0017 0C20.5434 0 20.9826 0.429865 20.9826 0.960129V2.98707H23.0533C24.1227 2.98707 25.1484 3.40293 25.9046 4.14318C26.6609 4.88342 27.0857 5.8874 27.0857 6.93427V9.92134C27.0857 10.0538 27.0583 10.1799 27.0088 10.2947C27.0583 10.4095 27.0857 10.5357 27.0857 10.6681V24.8567C27.0857 25.9035 26.6609 26.9075 25.9046 27.6478C25.1484 28.388 24.1227 28.8039 23.0533 28.8039H4.74386C3.67439 28.8039 2.64872 28.388 1.8925 27.6478C1.13627 26.9075 0.711426 25.9035 0.711426 24.8567V10.6681C0.711426 10.5357 0.738818 10.4095 0.78836 10.2947C0.738818 10.1799 0.711426 10.0538 0.711426 9.92134V6.93427C0.711426 5.88741 1.13627 4.88342 1.8925 4.14318C2.64872 3.40293 3.67439 2.98707 4.74386 2.98707H6.81456V0.960129C6.81456 0.429865 7.25371 0 7.79542 0ZM2.67315 8.96121V6.93427C2.67315 6.39669 2.89131 5.88113 3.27964 5.501C3.66798 5.12088 4.19467 4.90733 4.74386 4.90733H23.0533C23.6025 4.90733 24.1291 5.12088 24.5175 5.501C24.9058 5.88113 25.124 6.39669 25.124 6.93427V8.96121H2.67315ZM25.124 10.8815H2.67315V24.8567C2.67315 25.3943 2.89131 25.9098 3.27964 26.2899C3.66798 26.6701 4.19467 26.8836 4.74386 26.8836H23.0533C23.6025 26.8836 24.1291 26.6701 24.5175 26.2899C24.9058 25.9098 25.124 25.3943 25.124 24.8567V10.8815Z" fill="white"/>
</svg>
