<svg width="27" height="30" viewBox="0 0 27 30" fill="none" xmlns="http://www.w3.org/2000/svg">
<path fill-rule="evenodd" clip-rule="evenodd" d="M7.22222 0.770508C7.77451 0.770508 8.22222 1.20037 8.22222 1.73064V3.75758H18.6667V1.73064C18.6667 1.20037 19.1144 0.770508 19.6667 0.770508C20.219 0.770508 20.6667 1.20037 20.6667 1.73064V3.75758H22.7778C23.8681 3.75758 24.9138 4.17344 25.6848 4.91368C26.4558 5.65393 26.8889 6.65791 26.8889 7.70478V10.6918C26.8889 10.8243 26.861 10.9504 26.8105 11.0652C26.861 11.18 26.8889 11.3062 26.8889 11.4386V25.6272C26.8889 26.6741 26.4558 27.678 25.6848 28.4183C24.9138 29.1585 23.8681 29.5744 22.7778 29.5744H4.11111C3.02078 29.5744 1.9751 29.1585 1.20412 28.4183C0.433134 27.678 0 26.6741 0 25.6272V11.4386C0 11.3062 0.0279269 11.18 0.0784349 11.0652C0.0279269 10.9504 0 10.8243 0 10.6918V7.70478C0 6.65791 0.433133 5.65393 1.20412 4.91368C1.9751 4.17344 3.02078 3.75758 4.11111 3.75758H6.22222V1.73064C6.22222 1.20037 6.66994 0.770508 7.22222 0.770508ZM2 9.73172V7.70478C2 7.1672 2.22242 6.65164 2.61833 6.27151C3.01424 5.89139 3.55121 5.67784 4.11111 5.67784H22.7778C23.3377 5.67784 23.8746 5.89139 24.2706 6.27151C24.6665 6.65164 24.8889 7.1672 24.8889 7.70478V9.73172H2ZM24.8889 11.652H2V25.6272C2 26.1648 2.22242 26.6803 2.61833 27.0605C3.01424 27.4406 3.55121 27.6541 4.11111 27.6541H22.7778C23.3377 27.6541 23.8746 27.4406 24.2706 27.0605C24.6665 26.6803 24.8889 26.1648 24.8889 25.6272V11.652Z" fill="white"/>
</svg>
