<svg width="28" height="29" viewBox="0 0 28 29" fill="none" xmlns="http://www.w3.org/2000/svg">
<path fill-rule="evenodd" clip-rule="evenodd" d="M7.86867 0C8.41038 0 8.84953 0.429865 8.84953 0.960129V2.98707H19.0941V0.960129C19.0941 0.429865 19.5332 0 20.0749 0C20.6167 0 21.0558 0.429865 21.0558 0.960129V2.98707H23.1265C24.196 2.98707 25.2216 3.40293 25.9779 4.14318C26.7341 4.88342 27.1589 5.8874 27.1589 6.93427V9.92134C27.1589 10.0538 27.1315 10.1799 27.082 10.2947C27.1315 10.4095 27.1589 10.5357 27.1589 10.6681V24.8567C27.1589 25.9035 26.7341 26.9075 25.9779 27.6478C25.2216 28.388 24.196 28.8039 23.1265 28.8039H4.8171C3.74763 28.8039 2.72197 28.388 1.96574 27.6478C1.20951 26.9075 0.784668 25.9035 0.784668 24.8567V10.6681C0.784668 10.5357 0.81206 10.4095 0.861602 10.2947C0.81206 10.1799 0.784668 10.0538 0.784668 9.92134V6.93427C0.784668 5.88741 1.20951 4.88342 1.96574 4.14318C2.72197 3.40293 3.74763 2.98707 4.8171 2.98707H6.8878V0.960129C6.8878 0.429865 7.32695 0 7.86867 0ZM2.74639 8.96121V6.93427C2.74639 6.39669 2.96455 5.88113 3.35289 5.501C3.74122 5.12088 4.26791 4.90733 4.8171 4.90733H23.1265C23.6757 4.90733 24.2024 5.12088 24.5907 5.501C24.9791 5.88113 25.1972 6.39669 25.1972 6.93427V8.96121H2.74639ZM25.1972 10.8815H2.74639V24.8567C2.74639 25.3943 2.96455 25.9098 3.35289 26.2899C3.74122 26.6701 4.26791 26.8836 4.8171 26.8836H23.1265C23.6757 26.8836 24.2024 26.6701 24.5907 26.2899C24.9791 25.9098 25.1972 25.3943 25.1972 24.8567V10.8815Z" fill="white"/>
</svg>
