<svg width="39" height="18" viewBox="0 0 39 18" fill="none" xmlns="http://www.w3.org/2000/svg">
<path fill-rule="evenodd" clip-rule="evenodd" d="M10.3907 3.49334C10.6407 3.24311 10.9798 3.10254 11.3333 3.10254C11.6869 3.10254 12.026 3.24311 12.276 3.49334L14 5.2192C14.25 5.46951 14.3904 5.80895 14.3904 6.16288C14.3904 6.51682 14.25 6.85626 14 7.10656L12.9427 8.16504L9.33333 4.55181L10.3907 3.49334ZM8.39067 5.4955L2.39067 11.502C2.1406 11.7522 2.00008 12.0917 2 12.4456V14.1715C2 14.5255 2.14048 14.865 2.39052 15.1153C2.64057 15.3656 2.97971 15.5063 3.33333 15.5063H5.05733C5.41093 15.5062 5.75001 15.3655 6 15.1152L12 9.10872L8.39067 5.4955Z" fill="white"/>
<path fill-rule="evenodd" clip-rule="evenodd" d="M24.2856 3.3173H35.7142V14.2738C35.7142 15.2823 34.6909 16.0999 33.4285 16.0999H26.5714C25.309 16.0999 24.2856 15.2823 24.2856 14.2738V3.3173ZM29.9999 1.49121C31.2623 1.49121 32.2856 2.30878 32.2856 3.3173H27.7142C27.7142 2.30878 28.7376 1.49121 29.9999 1.49121Z" stroke="white" stroke-width="2" stroke-linecap="round" stroke-linejoin="round"/>
<path d="M22 3.31738H38" stroke="white" stroke-width="2" stroke-linecap="round" stroke-linejoin="round"/>
<path d="M27.7144 6.05664V13.361" stroke="white" stroke-width="2" stroke-linecap="round" stroke-linejoin="round"/>
<path d="M32.2856 6.05664V13.361" stroke="white" stroke-width="2" stroke-linecap="round" stroke-linejoin="round"/>
</svg>
