<svg width="45" height="25" viewBox="0 0 45 25" fill="none" xmlns="http://www.w3.org/2000/svg">
<path d="M11.3201 19V2.19996H13.9121V19H11.3201ZM0.352051 19V2.19996H2.94405V19H0.352051ZM1.48005 11.872V9.37597H12.4721V11.872H1.48005Z" fill="white"/>
<path d="M22.4019 19.24C21.5059 19.24 20.7219 19.032 20.0499 18.616C19.3939 18.2 18.8819 17.616 18.5139 16.864C18.1619 16.112 17.9859 15.216 17.9859 14.176V6.39997H20.4579V13.504C20.4579 14.24 20.5699 14.88 20.7939 15.424C21.0339 15.952 21.3699 16.36 21.8019 16.648C22.2499 16.936 22.7859 17.08 23.4099 17.08C23.8739 17.08 24.2979 17.008 24.6819 16.864C25.0659 16.704 25.3939 16.488 25.6659 16.216C25.9539 15.944 26.1779 15.616 26.3379 15.232C26.4979 14.848 26.5779 14.432 26.5779 13.984V6.39997H29.0499V19H26.5779V16.36L27.0099 16.072C26.8179 16.664 26.4899 17.2 26.0259 17.68C25.5779 18.16 25.0419 18.544 24.4179 18.832C23.7939 19.104 23.1219 19.24 22.4019 19.24ZM22.9779 4.76796C22.8659 4.60796 22.7779 4.45596 22.7139 4.31196C22.6499 4.15196 22.6179 3.99996 22.6179 3.85596C22.6179 3.71196 22.6579 3.55196 22.7379 3.37597C22.8339 3.19996 23.0099 3.02396 23.2659 2.84796C23.5379 2.67197 23.7219 2.53596 23.8179 2.43996C23.9299 2.34396 23.9859 2.23996 23.9859 2.12797C23.9859 1.98397 23.9139 1.87997 23.7699 1.81597C23.6419 1.75197 23.4739 1.71996 23.2659 1.71996C23.0099 1.71996 22.7299 1.75996 22.4259 1.83996C22.1219 1.91996 21.8339 2.02396 21.5619 2.15197L21.1779 0.639965C21.5139 0.447965 21.8739 0.303965 22.2579 0.207964C22.6419 0.111965 22.9939 0.0639648 23.3139 0.0639648C24.1619 0.0639648 24.7939 0.247965 25.2099 0.615965C25.6419 0.967965 25.8579 1.39997 25.8579 1.91197C25.8579 2.31196 25.7619 2.63196 25.5699 2.87196C25.3939 3.09596 25.1939 3.26396 24.9699 3.37597C24.6819 3.51997 24.4659 3.64796 24.3219 3.75996C24.1939 3.85596 24.1299 3.98396 24.1299 4.14396C24.1299 4.20796 24.1379 4.26396 24.1539 4.31196C24.1699 4.35996 24.1859 4.40796 24.2019 4.45597L22.9779 4.76796Z" fill="white"/>
<path d="M34.6291 24.52L37.1731 18.64L37.1971 20.608L30.9091 6.39997H33.7891L37.7251 15.664C37.8051 15.824 37.9011 16.072 38.0131 16.408C38.1251 16.728 38.2211 17.048 38.3011 17.368L37.6771 17.512C37.8051 17.176 37.9251 16.84 38.0371 16.504C38.1651 16.168 38.2851 15.832 38.3971 15.496L41.6851 6.39997H44.6131L39.4291 19L37.2931 24.52H34.6291Z" fill="white"/>
</svg>
