<svg width="473" height="114" viewBox="0 0 473 114" fill="none" xmlns="http://www.w3.org/2000/svg">
<path d="M0.686114 109.675C1.32839 112.55 4.17941 114.359 7.05405 113.717C9.92869 113.075 11.7384 110.224 11.0961 107.349C10.4538 104.474 7.60282 102.665 4.72817 103.307C1.85353 103.949 0.0438403 106.8 0.686114 109.675ZM461.686 6.6749C462.328 9.54955 465.179 11.3592 468.054 10.717C470.929 10.0747 472.738 7.22366 472.096 4.34902C471.454 1.47438 468.603 -0.335312 465.728 0.306963C462.854 0.949238 461.044 3.80026 461.686 6.6749ZM6.10916 109.488L467.109 6.4879L466.673 4.53603L5.67306 107.536L6.10916 109.488Z" fill="#FF1717"/>
</svg>
