<svg width="347" height="137" viewBox="0 0 347 137" fill="none" xmlns="http://www.w3.org/2000/svg">
<path d="M1.18387 3.65443C0.146919 6.41139 1.54127 9.48695 4.29822 10.5239C7.05518 11.5608 10.1308 10.1665 11.1677 7.40954C12.2046 4.65258 10.8103 1.57701 8.05334 0.540066C5.29638 -0.49688 2.22081 0.897467 1.18387 3.65443ZM336.184 129.654C335.147 132.411 336.541 135.487 339.298 136.524C342.055 137.561 345.131 136.167 346.168 133.41C347.205 130.653 345.81 127.577 343.053 126.54C340.296 125.503 337.221 126.897 336.184 129.654ZM5.82374 6.46797L340.824 132.468L341.528 130.596L6.52782 4.596L5.82374 6.46797Z" fill="#EF2424"/>
</svg>
