<svg width="326" height="246" viewBox="0 0 326 246" fill="none" xmlns="http://www.w3.org/2000/svg">
<path d="M1.59992 243.021C3.35994 245.383 6.70138 245.871 9.06325 244.111C11.4251 242.351 11.913 239.009 10.153 236.647C8.39299 234.286 5.05155 233.798 2.68968 235.558C0.327806 237.318 -0.160093 240.659 1.59992 243.021ZM316.25 8.55055C318.01 10.9124 321.351 11.4003 323.713 9.6403C326.075 7.88028 326.563 4.53883 324.803 2.17696C323.043 -0.184909 319.701 -0.672807 317.34 1.08721C314.978 2.84723 314.49 6.18868 316.25 8.55055ZM6.47399 240.636L321.124 6.16561L319.929 4.5619L5.27894 239.032L6.47399 240.636Z" fill="#EA2525"/>
</svg>
