<svg width="62" height="62" viewBox="0 0 62 62" fill="none" xmlns="http://www.w3.org/2000/svg">
<g opacity="0.5">
<circle cx="31" cy="31" r="31" fill="#BA5C84"/>
<path d="M39.3333 26C39.3333 23.6983 38.4 21.615 36.8933 20.1083C35.385 18.6 33.3017 17.6666 31 17.6666C28.6983 17.6666 26.615 18.6 25.1067 20.1083C23.6 21.615 22.6667 23.6983 22.6667 26C22.6667 28.3016 23.6 30.385 25.1067 31.8916C26.615 33.4 28.6983 34.3333 31 34.3333C33.3017 34.3333 35.385 33.4 36.8933 31.8916C37.6681 31.1187 38.2825 30.2003 38.7012 29.1893C39.12 28.1782 39.3348 27.0943 39.3333 26ZM21 42.6666C21 44.3333 24.75 46 31 46C36.8633 46 41 44.3333 41 42.6666C41 39.3333 37.0767 36 31 36C24.75 36 21 39.3333 21 42.6666Z" fill="white"/>
</g>
</svg>
