<svg width="62" height="62" viewBox="0 0 62 62" fill="none" xmlns="http://www.w3.org/2000/svg">
<circle cx="31" cy="31" r="31" fill="#BA5C84"/>
<path d="M39.3333 26.0001C39.3333 23.6984 38.4 21.6151 36.8933 20.1084C35.385 18.6001 33.3017 17.6667 31 17.6667C28.6983 17.6667 26.615 18.6001 25.1067 20.1084C23.6 21.6151 22.6667 23.6984 22.6667 26.0001C22.6667 28.3017 23.6 30.3851 25.1067 31.8917C26.615 33.4001 28.6983 34.3334 31 34.3334C33.3017 34.3334 35.385 33.4001 36.8933 31.8917C37.6681 31.1188 38.2825 30.2005 38.7012 29.1894C39.12 28.1783 39.3348 27.0944 39.3333 26.0001ZM21 42.6667C21 44.3334 24.75 46.0001 31 46.0001C36.8633 46.0001 41 44.3334 41 42.6667C41 39.3334 37.0767 36.0001 31 36.0001C24.75 36.0001 21 39.3334 21 42.6667Z" fill="white"/>
</svg>
