<svg width="224" height="41" viewBox="0 0 224 41" fill="none" xmlns="http://www.w3.org/2000/svg">
<path d="M0.5 5.00976C0.5 2.24834 2.73858 0.00976562 5.5 0.00976562H218.5C221.261 0.00976562 223.5 2.24834 223.5 5.00977V35.3352C223.5 38.0966 221.261 40.3352 218.5 40.3352H5.5C2.73858 40.3352 0.5 38.0966 0.5 35.3352V5.00976Z" fill="#BA5C84"/>
<path d="M0.5 5.00976C0.5 2.24834 2.73858 0.00976562 5.5 0.00976562H218.5C221.261 0.00976562 223.5 2.24834 223.5 5.00977V35.3352C223.5 38.0966 221.261 40.3352 218.5 40.3352H5.5C2.73858 40.3352 0.5 38.0966 0.5 35.3352V5.00976Z" fill="#BA5C84"/>
</svg>
