<svg width="219" height="31" viewBox="0 0 219 31" fill="none" xmlns="http://www.w3.org/2000/svg">
<path d="M1.5 5C1.5 3.067 3.067 1.5 5 1.5H214C215.933 1.5 217.5 3.067 217.5 5V26C217.5 27.933 215.933 29.5 214 29.5H4.99999C3.067 29.5 1.5 27.933 1.5 26V5Z" fill="#FDF7F7"/>
<path d="M1.5 5C1.5 3.067 3.067 1.5 5 1.5H214C215.933 1.5 217.5 3.067 217.5 5V26C217.5 27.933 215.933 29.5 214 29.5H4.99999C3.067 29.5 1.5 27.933 1.5 26V5Z" fill="#FDF7F7"/>
<path d="M1.5 5C1.5 3.067 3.067 1.5 5 1.5H214C215.933 1.5 217.5 3.067 217.5 5V26C217.5 27.933 215.933 29.5 214 29.5H4.99999C3.067 29.5 1.5 27.933 1.5 26V5Z" stroke="black" stroke-width="3"/>
</svg>
