<svg width="30" height="30" viewBox="0 0 30 30" fill="none" xmlns="http://www.w3.org/2000/svg">
<path d="M13.75 3.1709C19.96 3.1709 25 8.00995 25 13.9724C25 19.9348 19.96 24.7738 13.75 24.7738C7.54 24.7738 2.5 19.9348 2.5 13.9724C2.5 8.00995 7.54 3.1709 13.75 3.1709ZM13.75 22.3735C18.5837 22.3735 22.5 18.6134 22.5 13.9724C22.5 9.33013 18.5837 5.57122 13.75 5.57122C8.915 5.57122 5 9.33013 5 13.9724C5 18.6134 8.915 22.3735 13.75 22.3735ZM24.3563 22.4587L27.8925 25.8528L26.1238 27.551L22.5887 24.1557L24.3563 22.4587Z" fill="white"/>
</svg>
