<svg width="30" height="30" viewBox="0 0 30 30" fill="none" xmlns="http://www.w3.org/2000/svg">
<g opacity="0.5">
<path d="M13.75 3.17078C19.96 3.17078 25 8.00983 25 13.9722C25 19.9346 19.96 24.7737 13.75 24.7737C7.54 24.7737 2.5 19.9346 2.5 13.9722C2.5 8.00983 7.54 3.17078 13.75 3.17078ZM13.75 22.3734C18.5837 22.3734 22.5 18.6133 22.5 13.9722C22.5 9.33001 18.5837 5.5711 13.75 5.5711C8.915 5.5711 5 9.33001 5 13.9722C5 18.6133 8.915 22.3734 13.75 22.3734ZM24.3563 22.4586L27.8925 25.8526L26.1238 27.5509L22.5887 24.1556L24.3563 22.4586Z" fill="white"/>
</g>
</svg>
