<svg width="36" height="32" viewBox="0 0 36 32" fill="none" xmlns="http://www.w3.org/2000/svg">
<path fill-rule="evenodd" clip-rule="evenodd" d="M24.3789 1.00822C25.1054 0.362657 26.0906 0 27.1178 0C28.145 0 29.1302 0.362657 29.8567 1.00822L34.8658 5.4607C35.592 6.10646 36 6.98218 36 7.89528C36 8.80838 35.592 9.6841 34.8658 10.3299L31.7937 13.0606L21.3068 3.73894L24.3789 1.00822ZM18.568 6.17352L1.13507 21.6694C0.408513 22.315 0.000219412 23.1908 0 24.104V28.5565C0 29.4697 0.408149 30.3456 1.13466 30.9914C1.86117 31.6372 2.84653 32 3.87397 32H8.88302C9.91038 31.9998 10.8956 31.6369 11.6219 30.991L29.0548 15.4952L18.568 6.17352Z" fill="white"/>
</svg>
