<svg width="36" height="30" viewBox="0 0 36 30" fill="none" xmlns="http://www.w3.org/2000/svg">
<path fill-rule="evenodd" clip-rule="evenodd" d="M24.3789 0.945206C25.1054 0.339991 26.0906 0 27.1178 0C28.145 0 29.1302 0.339991 29.8567 0.945206L34.8658 5.11941C35.592 5.72481 36 6.54579 36 7.40183C36 8.25786 35.592 9.07884 34.8658 9.68424L31.7937 12.2443L21.3068 3.50526L24.3789 0.945206ZM18.568 5.78767L1.13507 20.3151C0.408513 20.9204 0.000219412 21.7414 0 22.5975V26.7717C0 27.6279 0.408149 28.449 1.13466 29.0544C1.86117 29.6599 2.84653 30 3.87397 30H8.88302C9.91038 29.9998 10.8956 29.6596 11.6219 29.0541L29.0548 14.5267L18.568 5.78767Z" fill="white"/>
</svg>
